<svg  viewBox="0 0 24 24" xmlns="http://www.w3.org/2000/svg">
    <g >
        <path d="m10 9c.5523 0 1 .44772 1 1v6c0 .5523-.4477 1-1 1-.55229 0-1-.4477-1-1v-6c0-.55228.44772-1 1-1z"/>
        <path d="m15 10c0-.55228-.4477-1-1-1s-1 .44772-1 1v6c0 .5523.4477 1 1 1s1-.4477 1-1z"/>
        <path clip-rule="evenodd" d="m8 5h-4c-.55228 0-1 .44772-1 1s.44772 1 1 1h.12449l1.65287 12.3965c.19872 1.4904 1.47007 2.6035 2.97368 2.6035h6.49796c1.5036 0 2.7749-1.1131 2.9737-2.6035l1.6528-12.3965h.1245c.5523 0 1-.44772 1-1s-.4477-1-1-1h-4c0-1.65685-1.3431-3-3-3h-2c-1.65685 0-3 1.34315-3 3zm5-1c.5523 0 1 .44772 1 1h-4c0-.55228.4477-1 1-1zm4.8578 3h-11.71561l1.61762 12.1322c.06624.4968.49003.8678.99123.8678h6.49796c.5012 0 .925-.371.9912-.8678z" fill-rule="evenodd"/>
    </g>
</svg>