<svg  viewBox="0 0 24 24"  xmlns="http://www.w3.org/2000/svg">
    <path d="m18 4.25h-.25v-1.25c0-.19891-.079-.38968-.2197-.53033-.1406-.14065-.3314-.21967-.5303-.21967s-.3897.07902-.5303.21967c-.1407.14065-.2197.33142-.2197.53033v1.25h-8.5v-1.25c0-.19891-.07902-.38968-.21967-.53033s-.33142-.21967-.53033-.21967-.38968.07902-.53033.21967-.21967.33142-.21967.53033v1.25h-.25c-.72935 0-1.42882.28973-1.94454.80546-.51573.51572-.80546 1.21519-.80546 1.94454v12c0 .7293.28973 1.4288.80546 1.9445.51572.5158 1.21519.8055 1.94454.8055h12c.7293 0 1.4288-.2897 1.9445-.8055.5158-.5157.8055-1.2152.8055-1.9445v-12c0-.72935-.2897-1.42882-.8055-1.94454-.5157-.51573-1.2152-.80546-1.9445-.80546zm-13.25 2.75c0-.33152.1317-.64946.36612-.88388s.55236-.36612.88388-.36612h.25v1.25c0 .19891.07902.38968.21967.53033s.33142.21967.53033.21967.38968-.07902.53033-.21967.21967-.33142.21967-.53033v-1.25h8.5v1.25c0 .19891.079.38968.2197.53033.1406.14065.3314.21967.5303.21967s.3897-.07902.5303-.21967c.1407-.14065.2197-.33142.2197-.53033v-1.25h.25c.3315 0 .6495.1317.8839.36612s.3661.55236.3661.88388v1.25h-14.5zm14.5 12c0 .3315-.1317.6495-.3661.8839s-.5524.3661-.8839.3661h-12c-.33152 0-.64946-.1317-.88388-.3661s-.36612-.5524-.36612-.8839v-9.25h14.5z" fill="rgb(0,0,0)"/>
</svg>