<svg id="a"  viewBox="0 0 24 24"  xmlns="http://www.w3.org/2000/svg">
    <path d="m20 6.25h-16c-1.5166 0-2.75 1.2334-2.75 2.75v6c0 1.5166 1.2334 2.75 2.75 2.75h16c1.5166 0 2.75-1.2334 2.75-2.75v-6c0-1.5166-1.2334-2.75-2.75-2.75zm1.25 8.75c0 .68945-.56055 1.25-1.25 1.25h-16c-.68945 0-1.25-.56055-1.25-1.25v-6c0-.68945.56055-1.25 1.25-1.25h16c.68945 0 1.25.56055 1.25 1.25zm-2.71973-4.53027c.29297.29297.29297.76758 0 1.06055l-2 2c-.14648.14648-.33838.21973-.53027.21973s-.38379-.07324-.53027-.21973l-2-2c-.29297-.29297-.29297-.76758 0-1.06055s.76758-.29297 1.06055 0l1.46973 1.46973 1.46973-1.46973c.29297-.29297.76758-.29297 1.06055 0z"/>
</svg>