<svg id="Line" viewBox="0 0 24 24" xmlns="http://www.w3.org/2000/svg">
    <path d="m4.76 18.81s.08 0 .11 0l2.93-.27c.41-.04.79-.22 1.08-.51l11.06-11.06c.52-.52.81-1.21.81-1.94s-.29-1.42-.81-1.94l-.71-.71c-1.04-1.04-2.85-1.04-3.89 0l-1.41 1.41s0 0 0 0l-9.64 9.64c-.29.29-.47.67-.5 1.08l-.27 2.93c-.03.37.1.73.36 1 .24.24.55.37.88.37zm12.53-15.74c.32 0 .64.12.88.37l.71.71c.24.24.37.55.37.88s-.13.65-.37.88l-.88.88-2.47-2.47.88-.88c.24-.24.56-.37.88-.37zm-12.01 11.58c0-.06.03-.11.07-.15l9.11-9.12 2.47 2.47-9.11 9.11s-.1.07-.15.07l-2.63.24.24-2.63zm17.47 7.35c0 .41-.34.75-.75.75h-20c-.41 0-.75-.34-.75-.75s.34-.75.75-.75h20c.41 0 .75.34.75.75z"/>
</svg>