<svg  viewBox="0 0 24 24"  xmlns="http://www.w3.org/2000/svg">
    <g fill="rgb(0,0,0)">
        <path d="m20 17.75h-16c-.72935 0-1.42882-.2897-1.94454-.8055-.51573-.5157-.80546-1.2152-.80546-1.9445v-6c0-.72935.28973-1.42882.80546-1.94454.51572-.51573 1.21519-.80546 1.94454-.80546h16c.7293 0 1.4288.28973 1.9445.80546.5158.51572.8055 1.21519.8055 1.94454v6c0 .7293-.2897 1.4288-.8055 1.9445-.5157.5158-1.2152.8055-1.9445.8055zm-16-10c-.33152 0-.64946.1317-.88388.36612s-.36612.55236-.36612.88388v6c0 .3315.1317.6495.36612.8839s.55236.3661.88388.3661h16c.3315 0 .6495-.1317.8839-.3661s.3661-.5524.3661-.8839v-6c0-.33152-.1317-.64946-.3661-.88388s-.5524-.36612-.8839-.36612z"/>
        <path d="m17 12.75h-10c-.19891 0-.38968-.079-.53033-.2197-.14065-.1406-.21967-.3314-.21967-.5303s.07902-.3897.21967-.5303c.14065-.1407.33142-.2197.53033-.2197h10c.1989 0 .3897.079.5303.2197.1407.1406.2197.3314.2197.5303s-.079.3897-.2197.5303c-.1406.1407-.3314.2197-.5303.2197z"/>
    </g>
</svg>