<svg   viewBox="0 0 24 24"  xmlns="http://www.w3.org/2000/svg">
    <g>
        <path d="m20 3.25h-16c-.72935 0-1.42882.28973-1.94454.80546-.51573.51572-.80546 1.21519-.80546 1.94454v12c0 .7293.28973 1.4288.80546 1.9445.51572.5158 1.21519.8055 1.94454.8055h16c.7293 0 1.4288-.2897 1.9445-.8055.5158-.5157.8055-1.2152.8055-1.9445v-12c0-.72935-.2897-1.42882-.8055-1.94454-.5157-.51573-1.2152-.80546-1.9445-.80546zm1.25 14.75c0 .3315-.1317.6495-.3661.8839s-.5524.3661-.8839.3661h-16c-.33152 0-.64946-.1317-.88388-.3661s-.36612-.5524-.36612-.8839v-12c0-.33152.1317-.64946.36612-.88388s.55236-.36612.88388-.36612h16c.3315 0 .6495.1317.8839.36612s.3661.55236.3661.88388z"/>
        <path d="m9.75 6.89001c0 .19891-.07902.38968-.21967.53033s-.33142.21967-.53033.21967h-1.25v3.24999c0 .1989-.07902.3897-.21967.5303-.14065.1407-.33142.2197-.53033.2197s-.38968-.079-.53033-.2197c-.14065-.1406-.21967-.3314-.21967-.5303v-3.24999h-1.25c-.19891 0-.38968-.07902-.53033-.21967s-.21967-.33142-.21967-.53033.07902-.38968.21967-.53033.33142-.21967.53033-.21967h4c.19811.00259.38737.08245.52747.22254.14009.1401.21994.32935.22253.52746z"/>
        <path d="m18 18.75c-.0986.0005-.1962-.0188-.2872-.0565-.0911-.0378-.1736-.0934-.2429-.1635-.1404-.1406-.2193-.3312-.2193-.53 0-.1987.0789-.3894.2193-.53l2-2c.0687-.0737.1515-.1328.2435-.1738s.1913-.063.292-.0648.2008.0168.2941.0545c.0934.0377.1783.0938.2495.1651.0712.0712.1274.156.1651.2494s.0562.1934.0544.2941c-.0017.1007-.0238.2-.0648.292s-.1001.1748-.1737.2435l-2 2c-.0693.0701-.1518.1257-.2429.1635-.091.0377-.1886.057-.2871.0565z"/>
        <path d="m15 17.75c-.0986.0005-.1962-.0188-.2872-.0565-.0911-.0378-.1736-.0934-.2428-.1635-.1405-.1406-.2194-.3312-.2194-.53s.0789-.3894.2194-.53l3.9999-4c.1422-.1325.3303-.2046.5246-.2012.1943.0035.3797.0822.5171.2196s.2161.3228.2195.5171c.0035.1943-.0687.3823-.2011.5245l-4 4c-.0693.0701-.1518.1257-.2429.1635-.091.0377-.1886.057-.2871.0565z"/>
    </g>
</svg>