<svg
								id="fi_9671337"
								height="512"
								viewBox="0 0 32 32"
								width="512"
								xmlns="http://www.w3.org/2000/svg"
								data-name="Layer 1"
							>
    <path
									d="m27 8h-5v-1a2 2 0 0 1 2-2 1 1 0 0 0 0-2 4 4 0 0 0 -3 1.36 4 4 0 0 0 -3-1.36 1 1 0 0 0 0 2 2 2 0 0 1 2 2v1h-15a3 3 0 0 0 -3 3v10a3 3 0 0 0 3 3h15v1a2 2 0 0 1 -2 2 1 1 0 1 0 0 2 4 4 0 0 0 3-1.36 4 4 0 0 0 3 1.36 1 1 0 0 0 0-2 2 2 0 0 1 -2-2v-1h5a3 3 0 0 0 3-3v-10a3 3 0 0 0 -3-3zm-22 14a1 1 0 0 1 -1-1v-10a1 1 0 0 1 1-1h15v12zm23-1a1 1 0 0 1 -1 1h-5v-12h5a1 1 0 0 1 1 1z"
								></path>
    <path
									d="m11 12h-4a1 1 0 0 0 0 2h1v5a1 1 0 0 0 2 0v-5h1a1 1 0 0 0 0-2z"
								></path>
</svg>