<svg  viewBox="0 0 24 24"  xmlns="http://www.w3.org/2000/svg">
    <path clip-rule="evenodd" d="m3 5c-.55228 0-1 .44772-1 1s.44772 1 1 1h17.9977c.5523 0 1-.44772 1-1s-.4477-1-1-1zm0 4c-.55228 0-1 .44772-1 1 0 .5523.44772 1 1 1h17.9977c.5523 0 1-.4477 1-1 0-.55228-.4477-1-1-1zm-1 5c0-.5523.44772-1 1-1h17.9977c.5523 0 1 .4477 1 1s-.4477 1-1 1h-17.9977c-.55228 0-1-.4477-1-1zm1 3c-.55228 0-1 .4477-1 1s.44772 1 1 1h11.2486c.5523 0 1-.4477 1-1s-.4477-1-1-1z" fill="rgb(0,0,0)" fill-rule="evenodd"/>
</svg>